RobotoCondensed-Bold.ufo
<glyph name="questiondown" format="2">
  <advance width="915"/>
  <unicode hex="00BF"/>
  <guideline x="0.0" y="-181.0" angle="0.0" identifier="R5Xi5emfIb"/>
  <guideline x="0.0" y="921.0" angle="0.0" identifier="FezmRZiOsr"/>
  <outline>
    <contour>
      <point x="357" y="642" type="line"/>
      <point x="355" y="539"/>
      <point x="341" y="479"/>
      <point x="282" y="411" type="curve"/>
      <point x="177" y="290"/>
      <point x="73" y="182"/>
      <point x="73" y="7" type="curve" smooth="yes"/>
      <point x="73" y="-247"/>
      <point x="220" y="-385"/>
      <point x="466" y="-385" type="curve" smooth="yes"/>
      <point x="689" y="-385"/>
      <point x="861" y="-257"/>
      <point x="864" y="24" type="curve"/>
      <point x="581" y="24" type="line"/>
      <point x="579" y="-97"/>
      <point x="520" y="-148"/>
      <point x="461" y="-148" type="curve" smooth="yes"/>
      <point x="398" y="-148"/>
      <point x="356" y="-98"/>
      <point x="356" y="9" type="curve" smooth="yes"/>
      <point x="356" y="117"/>
      <point x="409" y="181"/>
      <point x="479" y="266" type="curve" smooth="yes"/>
      <point x="574" y="369"/>
      <point x="606" y="462"/>
      <point x="606" y="642" type="curve"/>
    </contour>
    <contour>
      <point x="639" y="949" type="curve" smooth="yes"/>
      <point x="639" y="1036"/>
      <point x="579" y="1103"/>
      <point x="485" y="1103" type="curve" smooth="yes"/>
      <point x="390" y="1103"/>
      <point x="330" y="1036"/>
      <point x="330" y="949" type="curve" smooth="yes"/>
      <point x="330" y="861"/>
      <point x="390" y="794"/>
      <point x="485" y="794" type="curve" smooth="yes"/>
      <point x="579" y="794"/>
      <point x="639" y="861"/>
    </contour>
  </outline>
</glyph>
<glyph name="Tonesix" format="2">
  <advance width="1254"/>
  <unicode hex="0184"/>
  <guideline x="0.0" y="1211.0" angle="0.0" identifier="qRfZa1w2LZ"/>
  <outline>
    <contour>
      <point x="241" y="1456" type="line"/>
      <point x="241" y="1456"/>
      <point x="74" y="1281"/>
      <point x="74" y="1281" type="curve"/>
      <point x="74" y="1281"/>
      <point x="74" y="1141"/>
      <point x="74" y="1141" type="curve"/>
      <point x="74" y="1141"/>
      <point x="241" y="967"/>
      <point x="241" y="967" type="curve"/>
      <point x="284" y="967" type="line"/>
      <point x="285" y="1456" type="line"/>
    </contour>
    <contour>
      <point x="439" y="934" type="line"/>
      <point x="439" y="689" type="line"/>
      <point x="713" y="689" type="line"/>
      <point x="834" y="689"/>
      <point x="898" y="596"/>
      <point x="898" y="474" type="curve"/>
      <point x="898" y="348"/>
      <point x="834" y="244"/>
      <point x="713" y="244" type="curve"/>
      <point x="536" y="244" type="line"/>
      <point x="536" y="1456" type="line"/>
      <point x="241" y="1456" type="line"/>
      <point x="241" y="0" type="line"/>
      <point x="713" y="0" type="line"/>
      <point x="1006" y="0"/>
      <point x="1192" y="193"/>
      <point x="1192" y="472" type="curve"/>
      <point x="1192" y="750"/>
      <point x="1006" y="934"/>
      <point x="713" y="934" type="curve"/>
    </contour>
  </outline>
</glyph>
<glyph name="khook" format="2">
  <advance width="980"/>
  <unicode hex="0199"/>
  <guideline x="0.0" y="1557.0" angle="0.0" identifier="QJjINMeRUG"/>
  <outline>
    <contour>
      <point x="386" y="1063" type="line"/>
      <point x="103" y="1063" type="line"/>
      <point x="103" y="0" type="line"/>
      <point x="386" y="0" type="line"/>
    </contour>
    <contour>
      <point x="955" y="1082" type="line"/>
      <point x="618" y="1082" type="line"/>
      <point x="421" y="758" type="line"/>
      <point x="245" y="500" type="line"/>
      <point x="345" y="287" type="line"/>
      <point x="574" y="543" type="line"/>
    </contour>
    <contour>
      <point x="660" y="0" type="line"/>
      <point x="984" y="0" type="line"/>
      <point x="621" y="674" type="line"/>
      <point x="426" y="497" type="line"/>
    </contour>
    <contour>
      <point x="386" y="1032" type="line"/>
      <point x="386" y="1213" type="line" smooth="yes"/>
      <point x="386" y="1325"/>
      <point x="465" y="1354"/>
      <point x="522" y="1354" type="curve" smooth="yes"/>
      <point x="540" y="1354"/>
      <point x="558" y="1351"/>
      <point x="579" y="1347" type="curve"/>
      <point x="577" y="1542" type="line"/>
      <point x="542" y="1553"/>
      <point x="480" y="1557"/>
      <point x="444" y="1557" type="curve" smooth="yes"/>
      <point x="221" y="1557"/>
      <point x="103" y="1442"/>
      <point x="103" y="1213" type="curve" smooth="yes"/>
      <point x="103" y="1032" type="line"/>
    </contour>
  </outline>
</glyph>
<glyph name="tonefive" format="2">
  <advance width="999"/>
  <unicode hex="01BD"/>
  <outline>
    <contour>
      <point x="419" y="461" type="line" name="hr00"/>
      <point x="437" y="491"/>
      <point x="470" y="518"/>
      <point x="531" y="518" type="curve" smooth="yes"/>
      <point x="612" y="518"/>
      <point x="658" y="459"/>
      <point x="658" y="368" type="curve" smooth="yes"/>
      <point x="658" y="278"/>
      <point x="621" y="218"/>
      <point x="536" y="218" type="curve" smooth="yes"/>
      <point x="457" y="218"/>
      <point x="407" y="258"/>
      <point x="402" y="336" type="curve"/>
      <point x="121" y="320" type="line"/>
      <point x="121" y="86"/>
      <point x="329" y="-17"/>
      <point x="536" y="-17" type="curve" smooth="yes"/>
      <point x="822" y="-17"/>
      <point x="941" y="138"/>
      <point x="941" y="351" type="curve" smooth="yes"/>
      <point x="941" y="582"/>
      <point x="822" y="715"/>
      <point x="609" y="714" type="curve"/>
      <point x="548" y="713"/>
      <point x="478" y="688"/>
      <point x="444" y="665" type="curve"/>
      <point x="462" y="850" type="line"/>
      <point x="876" y="850" type="line"/>
      <point x="876" y="1082" type="line"/>
      <point x="231" y="1082" type="line"/>
      <point x="163" y="474" type="line"/>
    </contour>
    <contour>
      <point x="343" y="1082" type="line"/>
      <point x="66" y="1082" type="line"/>
      <point x="66" y="850" type="line"/>
      <point x="343" y="850" type="line"/>
    </contour>
  </outline>
</glyph>
<glyph name="uni0225" format="2">
  <advance width="1033"/>
  <unicode hex="0225"/>
  <outline>
    <contour>
      <point x="528" y="235" type="line"/>
      <point x="157" y="235" type="line"/>
      <point x="157" y="0" type="line"/>
      <point x="528" y="0" type="line"/>
    </contour>
    <contour>
      <point x="838" y="911" type="line"/>
      <point x="838" y="1082" type="line"/>
      <point x="647" y="1082" type="line"/>
      <point x="80" y="177" type="line"/>
      <point x="80" y="0" type="line"/>
      <point x="269" y="0" type="line"/>
    </contour>
    <contour>
      <point x="739" y="1082" type="line"/>
      <point x="91" y="1082" type="line"/>
      <point x="91" y="847" type="line"/>
      <point x="739" y="847" type="line"/>
    </contour>
    <contour>
      <point x="430" y="0" type="line"/>
      <point x="638" y="0" type="line" smooth="yes"/>
      <point x="739" y="0"/>
      <point x="756" y="-96"/>
      <point x="756" y="-187" type="curve" smooth="yes"/>
      <point x="756" y="-216"/>
      <point x="754" y="-244"/>
      <point x="750" y="-274" type="curve"/>
      <point x="972" y="-274" type="line"/>
      <point x="983" y="-225"/>
      <point x="986" y="-178"/>
      <point x="986" y="-128" type="curve" smooth="yes"/>
      <point x="986" y="104"/>
      <point x="863" y="235"/>
      <point x="638" y="235" type="curve" smooth="yes"/>
      <point x="430" y="235" type="line"/>
    </contour>
  </outline>
</glyph>
<glyph name="uni024C" format="2">
  <advance width="1204"/>
  <unicode hex="024C"/>
  <anchor x="521" y="1600" name="top"/>
  <anchor x="536" y="10" name="bottom"/>
  <anchor x="1184" y="1600" name="top0315"/>
  <anchor x="521" y="1600" name="parent_top"/>
  <outline>
    <contour>
      <point x="183" y="1456" type="line"/>
      <point x="183" y="0" type="line"/>
      <point x="477" y="0" type="line"/>
      <point x="477" y="1211" type="line"/>
      <point x="652" y="1211" type="line" smooth="yes"/>
      <point x="770" y="1211"/>
      <point x="819" y="1127"/>
      <point x="819" y="992" type="curve" smooth="yes"/>
      <point x="819" y="862"/>
      <point x="761" y="777"/>
      <point x="644" y="777" type="curve" smooth="yes"/>
      <point x="42" y="777" type="line"/>
      <point x="42" y="532" type="line"/>
      <point x="759" y="532" type="line"/>
      <point x="850" y="587" type="line"/>
      <point x="1013" y="653"/>
      <point x="1114" y="779"/>
      <point x="1114" y="1016" type="curve" smooth="yes"/>
      <point x="1114" y="1303"/>
      <point x="943" y="1456"/>
      <point x="652" y="1456" type="curve" smooth="yes"/>
    </contour>
    <contour>
      <point x="843" y="0" type="line"/>
      <point x="1159" y="0" type="line"/>
      <point x="1159" y="14" type="line"/>
      <point x="886" y="650" type="line"/>
      <point x="576" y="649" type="line"/>
    </contour>
  </outline>
</glyph>
<glyph name="erev" format="2">
  <advance width="983"/>
  <unicode hex="0258"/>
  <anchor x="758" y="654" name="rhotichook"/>
  <anchor x="471" y="1290" name="top"/>
  <anchor x="441" y="0" name="bottom"/>
  <anchor x="963" y="1290" name="top0315"/>
  <anchor x="471" y="1290" name="parent_top"/>
  <outline>
    <contour>
      <point x="442" y="-20" type="curve" smooth="yes"/>
      <point x="738" y="-20"/>
      <point x="904" y="215"/>
      <point x="904" y="504" type="curve" smooth="yes"/>
      <point x="904" y="543" type="line" smooth="yes"/>
      <point x="904" y="869"/>
      <point x="743" y="1102"/>
      <point x="471" y="1102" type="curve" smooth="yes"/>
      <point x="198" y="1102"/>
      <point x="59" y="891"/>
      <point x="59" y="571" type="curve" smooth="yes"/>
      <point x="59" y="447" type="line"/>
      <point x="785" y="447" type="line"/>
      <point x="785" y="645" type="line"/>
      <point x="337" y="645" type="line"/>
      <point x="337" y="668" type="line"/>
      <point x="340" y="782"/>
      <point x="375" y="867"/>
      <point x="473" y="867" type="curve" smooth="yes"/>
      <point x="587" y="867"/>
      <point x="621" y="729"/>
      <point x="621" y="543" type="curve" smooth="yes"/>
      <point x="621" y="504" type="line" smooth="yes"/>
      <point x="621" y="334"/>
      <point x="552" y="215"/>
      <point x="424" y="215" type="curve" smooth="yes"/>
      <point x="339" y="215"/>
      <point x="264" y="254"/>
      <point x="214" y="336" type="curve"/>
      <point x="78" y="176" type="line"/>
      <point x="135" y="78"/>
      <point x="258" y="-20"/>
    </contour>
  </outline>
</glyph>
<glyph name="hhook" format="2">
  <advance width="1008"/>
  <unicode hex="0266"/>
  <anchor x="547" y="1700" name="top"/>
  <anchor x="510" y="0" name="bottom"/>
  <anchor x="988" y="1700" name="top0315"/>
  <anchor x="547" y="1700" name="parent_top"/>
  <outline>
    <contour>
      <point x="379" y="1160" type="line"/>
      <point x="96" y="1160" type="line"/>
      <point x="96" y="0" type="line"/>
      <point x="379" y="0" type="line"/>
    </contour>
    <contour>
      <point x="338" y="578" type="line"/>
      <point x="337" y="741"/>
      <point x="380" y="866"/>
      <point x="500" y="866" type="curve" smooth="yes"/>
      <point x="582" y="866"/>
      <point x="625" y="823"/>
      <point x="625" y="684" type="curve" smooth="yes"/>
      <point x="625" y="0" type="line"/>
      <point x="908" y="0" type="line"/>
      <point x="908" y="682" type="line" smooth="yes"/>
      <point x="908" y="988"/>
      <point x="784" y="1102"/>
      <point x="606" y="1102" type="curve" smooth="yes"/>
      <point x="397" y="1102"/>
      <point x="259" y="880"/>
      <point x="263" y="576" type="curve"/>
    </contour>
    <contour>
      <point x="379" y="1051" type="line"/>
      <point x="379" y="1232" type="line" smooth="yes"/>
      <point x="379" y="1344"/>
      <point x="458" y="1372"/>
      <point x="515" y="1372" type="curve" smooth="yes"/>
      <point x="533" y="1372"/>
      <point x="551" y="1370"/>
      <point x="572" y="1365" type="curve"/>
      <point x="570" y="1561" type="line"/>
      <point x="535" y="1571"/>
      <point x="491" y="1576"/>
      <point x="436" y="1576" type="curve" smooth="yes"/>
      <point x="293" y="1576"/>
      <point x="96" y="1522"/>
      <point x="96" y="1232" type="curve" smooth="yes"/>
      <point x="96" y="1051" type="line"/>
    </contour>
  </outline>
</glyph>
<glyph name="uni02F0" format="2">
  <advance width="602"/>
  <unicode hex="02F0"/>
  <outline>
    <contour>
      <point x="297" y="-271" type="line"/>
      <point x="337" y="-72" type="line"/>
      <point x="236" y="-72" type="line"/>
      <point x="80" y="-550" type="line"/>
      <point x="219" y="-550" type="line"/>
    </contour>
    <contour>
      <point x="383" y="-550" type="line"/>
      <point x="523" y="-550" type="line"/>
      <point x="367" y="-72" type="line"/>
      <point x="265" y="-72" type="line"/>
      <point x="304" y="-271" type="line"/>
    </contour>
  </outline>
</glyph>
<glyph name="uni02F1" format="2">
  <advance width="610"/>
  <unicode hex="02F1"/>
  <outline>
    <contour>
      <point x="284" y="-315" type="line"/>
      <point x="80" y="-272" type="line"/>
      <point x="80" y="-371" type="line"/>
      <point x="531" y="-552" type="line"/>
      <point x="531" y="-415" type="line"/>
    </contour>
    <contour>
      <point x="531" y="-201" type="line"/>
      <point x="531" y="-64" type="line"/>
      <point x="80" y="-244" type="line"/>
      <point x="80" y="-343" type="line"/>
      <point x="284" y="-302" type="line"/>
    </contour>
  </outline>
</glyph>
<glyph name="uni02F7" format="2">
  <advance width="821"/>
  <unicode hex="02F7"/>
  <outline>
    <contour>
      <point x="575" y="-136" type="line"/>
      <point x="575" y="-198"/>
      <point x="545" y="-232"/>
      <point x="509" y="-232" type="curve" smooth="yes"/>
      <point x="427" y="-232"/>
      <point x="365" y="-146"/>
      <point x="281" y="-146" type="curve" smooth="yes"/>
      <point x="165" y="-146"/>
      <point x="82" y="-270"/>
      <point x="82" y="-414" type="curve"/>
      <point x="242" y="-423" type="line"/>
      <point x="242" y="-362"/>
      <point x="270" y="-328"/>
      <point x="306" y="-328" type="curve" smooth="yes"/>
      <point x="392" y="-328"/>
      <point x="430" y="-414"/>
      <point x="535" y="-414" type="curve" smooth="yes"/>
      <point x="651" y="-414"/>
      <point x="734" y="-295"/>
      <point x="734" y="-148" type="curve"/>
    </contour>
  </outline>
</glyph>
<glyph name="uni0361" format="2">
  <unicode hex="0361"/>
  <anchor x="20" y="1168" name="_top_dd"/>
  <outline>
    <contour>
      <point x="643" y="1129" type="line"/>
      <point x="578" y="1304"/>
      <point x="411" y="1486"/>
      <point x="20" y="1486" type="curve" smooth="yes"/>
      <point x="-371" y="1486"/>
      <point x="-539" y="1304"/>
      <point x="-604" y="1129" type="curve"/>
      <point x="-408" y="1129" type="line"/>
      <point x="-358" y="1197"/>
      <point x="-245" y="1320"/>
      <point x="20" y="1320" type="curve" smooth="yes"/>
      <point x="284" y="1320"/>
      <point x="403" y="1197"/>
      <point x="446" y="1129" type="curve"/>
    </contour>
  </outline>
</glyph>
<glyph name="uni036D" format="2">
  <unicode hex="036D"/>
  <guideline x="-236.0" y="0.0" angle="90.0" identifier="oxhAknVtQA"/>
  <anchor x="-506" y="1170" name="_top"/>
  <anchor x="-506" y="2018" name="_mkmktop"/>
  <outline>
    <contour>
      <point x="-363" y="1759" type="line"/>
      <point x="-652" y="1759" type="line"/>
      <point x="-652" y="1643" type="line"/>
      <point x="-363" y="1643" type="line"/>
    </contour>
    <contour>
      <point x="-589" y="1892" type="line"/>
      <point x="-589" y="1382" type="line" smooth="yes"/>
      <point x="-589" y="1249"/>
      <point x="-534" y="1194"/>
      <point x="-443" y="1194" type="curve" smooth="yes"/>
      <point x="-410" y="1194"/>
      <point x="-384" y="1199"/>
      <point x="-362" y="1208" type="curve"/>
      <point x="-361" y="1326" type="line"/>
      <point x="-369" y="1324"/>
      <point x="-381" y="1323"/>
      <point x="-395" y="1323" type="curve" smooth="yes"/>
      <point x="-427" y="1323"/>
      <point x="-438" y="1338"/>
      <point x="-438" y="1384" type="curve" smooth="yes"/>
      <point x="-438" y="1892" type="line"/>
    </contour>
  </outline>
</glyph>
<glyph name="tonos" format="2">
  <advance width="695"/>
  <unicode hex="0384"/>
  <outline>
    <contour>
      <point x="374" y="1218" type="line"/>
      <point x="545" y="1623" type="line"/>
      <point x="284" y="1663" type="line"/>
      <point x="201" y="1256" type="line"/>
    </contour>
  </outline>
</glyph>
<glyph name="dieresistonos" format="2">
  <advance width="1017"/>
  <unicode hex="0385"/>
  <outline>
    <contour>
      <point x="202" y="1240" type="curve" smooth="yes"/>
      <point x="282" y="1240"/>
      <point x="341" y="1295"/>
      <point x="341" y="1367" type="curve" smooth="yes"/>
      <point x="341" y="1438"/>
      <point x="282" y="1494"/>
      <point x="202" y="1494" type="curve" smooth="yes"/>
      <point x="121" y="1494"/>
      <point x="63" y="1438"/>
      <point x="63" y="1367" type="curve" smooth="yes"/>
      <point x="63" y="1295"/>
      <point x="121" y="1240"/>
    </contour>
    <contour>
      <point x="561" y="1217" type="line"/>
      <point x="673" y="1648" type="line"/>
      <point x="425" y="1648" type="line"/>
      <point x="405" y="1229" type="line"/>
    </contour>
    <contour>
      <point x="814" y="1239" type="curve" smooth="yes"/>
      <point x="894" y="1239"/>
      <point x="953" y="1295"/>
      <point x="953" y="1366" type="curve" smooth="yes"/>
      <point x="953" y="1438"/>
      <point x="894" y="1494"/>
      <point x="814" y="1494" type="curve" smooth="yes"/>
      <point x="733" y="1494"/>
      <point x="675" y="1438"/>
      <point x="675" y="1366" type="curve" smooth="yes"/>
      <point x="675" y="1295"/>
      <point x="733" y="1239"/>
    </contour>
  </outline>
</glyph>
<glyph name="Phi" format="2">
  <advance width="1385"/>
  <unicode hex="03A6"/>
  <outline>
    <contour>
      <point x="560" y="-20" type="line"/>
      <point x="824" y="-20" type="line"/>
      <point x="824" y="189" type="line"/>
      <point x="831" y="189" type="line" smooth="yes"/>
      <point x="1142.0" y="189.0"/>
      <point x="1329" y="396"/>
      <point x="1329" y="741" type="curve" smooth="yes"/>
      <point x="1329" y="1084"/>
      <point x="1142.0" y="1293.0"/>
      <point x="831" y="1293" type="curve" smooth="yes"/>
      <point x="824" y="1293" type="line"/>
      <point x="824" y="1476" type="line"/>
      <point x="560" y="1476" type="line"/>
      <point x="560" y="1293" type="line"/>
      <point x="553" y="1293" type="line" smooth="yes"/>
      <point x="242.0" y="1293.0"/>
      <point x="55" y="1085"/>
      <point x="55" y="742" type="curve" smooth="yes"/>
      <point x="55" y="397"/>
      <point x="242.0" y="189"/>
      <point x="553" y="189" type="curve" smooth="yes"/>
      <point x="560" y="189" type="line"/>
    </contour>
    <contour>
      <point x="560" y="415" type="line"/>
      <point x="553" y="415" type="line" smooth="yes"/>
      <point x="426.0" y="415"/>
      <point x="339" y="531"/>
      <point x="339" y="743" type="curve" smooth="yes"/>
      <point x="339" y="952"/>
      <point x="426.0" y="1068.0"/>
      <point x="553" y="1068" type="curve" smooth="yes"/>
      <point x="560" y="1068" type="line"/>
    </contour>
    <contour>
      <point x="824" y="415" type="line"/>
      <point x="824" y="1068" type="line"/>
      <point x="831" y="1068" type="line" smooth="yes"/>
      <point x="958.0" y="1068.0"/>
      <point x="1045" y="948"/>
      <point x="1045" y="740" type="curve" smooth="yes"/>
      <point x="1045" y="527"/>
      <point x="958.0" y="415.0"/>
      <point x="831" y="415" type="curve" smooth="yes"/>
    </contour>
  </outline>
</glyph>
<glyph name="zeta" format="2">
  <advance width="912"/>
  <unicode hex="03B6"/>
  <outline>
    <contour>
      <point x="563" y="-343" type="curve"/>
      <point x="780" y="-343" type="line"/>
      <point x="815" y="-245"/>
      <point x="843" y="-107"/>
      <point x="843" y="-32" type="curve"/>
      <point x="843" y="89"/>
      <point x="796" y="159"/>
      <point x="630" y="221" type="curve" smooth="yes"/>
      <point x="571" y="243" type="line" smooth="yes"/>
      <point x="461" y="284"/>
      <point x="393" y="318"/>
      <point x="393" y="426" type="curve" smooth="yes"/>
      <point x="393" y="535"/>
      <point x="438" y="641"/>
      <point x="603" y="929" type="curve" smooth="yes"/>
      <point x="846" y="1354" type="line"/>
      <point x="846" y="1536" type="line"/>
      <point x="112" y="1536" type="line"/>
      <point x="112" y="1303" type="line"/>
      <point x="564" y="1303" type="line"/>
      <point x="564" y="1364" type="line"/>
      <point x="364" y="1013" type="line" smooth="yes"/>
      <point x="212" y="747"/>
      <point x="110" y="558"/>
      <point x="110" y="370" type="curve" smooth="yes"/>
      <point x="110" y="169"/>
      <point x="210" y="76"/>
      <point x="399" y="12" type="curve" smooth="yes"/>
      <point x="449" y="-5" type="line" smooth="yes"/>
      <point x="581" y="-50"/>
      <point x="595" y="-83"/>
      <point x="595" y="-148" type="curve" smooth="yes"/>
      <point x="595" y="-204"/>
      <point x="583" y="-263"/>
    </contour>
  </outline>
</glyph>
<glyph name="kappa" format="2">
  <advance width="1077"/>
  <unicode hex="03BA"/>
  <outline>
    <contour>
      <point x="123" y="0" type="line"/>
      <point x="406" y="0" type="line"/>
      <point x="406" y="439" type="line"/>
      <point x="461" y="439" type="line"/>
      <point x="706" y="0" type="line"/>
      <point x="1024" y="0" type="line"/>
      <point x="700" y="564" type="line"/>
      <point x="993" y="1082" type="line"/>
      <point x="687" y="1082" type="line"/>
      <point x="466" y="664" type="line"/>
      <point x="406" y="664" type="line"/>
      <point x="406" y="1082" type="line"/>
      <point x="123" y="1082" type="line"/>
    </contour>
  </outline>
</glyph>
<glyph name="omega" format="2">
  <advance width="1451"/>
  <unicode hex="03C9"/>
  <anchor x="726.0" y="1082" name="GRK_top"/>
  <outline>
    <contour>
      <point x="431.0" y="-20" type="curve" smooth="yes"/>
      <point x="560.0" y="-20"/>
      <point x="684.0" y="61"/>
      <point x="735.0" y="225" type="curve"/>
      <point x="717.0" y="225" type="line"/>
      <point x="768.0" y="61"/>
      <point x="892.0" y="-20"/>
      <point x="1021.0" y="-20" type="curve" smooth="yes"/>
      <point x="1244.0" y="-20"/>
      <point x="1381.0" y="115"/>
      <point x="1381.0" y="482" type="curve" smooth="yes"/>
      <point x="1381.0" y="751"/>
      <point x="1288.0" y="964"/>
      <point x="1173.0" y="1082" type="curve"/>
      <point x="943.0" y="1017" type="line"/>
      <point x="1045.0" y="878"/>
      <point x="1098.0" y="695"/>
      <point x="1098.0" y="470" type="curve" smooth="yes"/>
      <point x="1098.0" y="271"/>
      <point x="1067.0" y="216"/>
      <point x="977.0" y="216" type="curve"/>
      <point x="919.0" y="216"/>
      <point x="858.0" y="258"/>
      <point x="858.0" y="395" type="curve" smooth="yes"/>
      <point x="858.0" y="707" type="line"/>
      <point x="594.0" y="707" type="line"/>
      <point x="594.0" y="395" type="line"/>
      <point x="594.0" y="258"/>
      <point x="533.0" y="216"/>
      <point x="475.0" y="216" type="curve"/>
      <point x="385.0" y="216"/>
      <point x="354.0" y="271"/>
      <point x="354.0" y="470" type="curve" smooth="yes"/>
      <point x="354.0" y="695"/>
      <point x="407.0" y="878"/>
      <point x="509.0" y="1017" type="curve"/>
      <point x="279.0" y="1082" type="line"/>
      <point x="164.0" y="964"/>
      <point x="71.0" y="751"/>
      <point x="71.0" y="482" type="curve" smooth="yes"/>
      <point x="71.0" y="115"/>
      <point x="208.0" y="-20"/>
    </contour>
  </outline>
</glyph>
<glyph name="uni0432" format="2">
  <advance width="1019"/>
  <unicode hex="0432"/>
  <guideline x="0.0" y="721.0" angle="0.0" identifier="NoHlpSO6my"/>
  <guideline x="0.0" y="444.0" angle="0.0" identifier="ahoVI5F0yX"/>
  <anchor x="476" y="1269" name="top"/>
  <anchor x="999" y="1269" name="top0315"/>
  <anchor x="476" y="1269" name="parent_top"/>
  <outline>
    <contour>
      <point x="572" y="449" type="line"/>
      <point x="601" y="526" type="line"/>
      <point x="798" y="541"/>
      <point x="906" y="647"/>
      <point x="906" y="780" type="curve"/>
      <point x="906" y="985"/>
      <point x="755" y="1082"/>
      <point x="514" y="1082" type="curve"/>
      <point x="121" y="1082" type="line"/>
      <point x="121" y="0" type="line"/>
      <point x="404" y="0" type="line"/>
      <point x="404" y="849" type="line"/>
      <point x="514" y="849" type="line"/>
      <point x="587" y="849"/>
      <point x="623" y="818"/>
      <point x="623" y="741" type="curve"/>
      <point x="623" y="677"/>
      <point x="594" y="644"/>
      <point x="519" y="644" type="curve"/>
      <point x="298" y="644" type="line"/>
      <point x="300" y="449" type="line"/>
    </contour>
    <contour>
      <point x="572" y="0" type="line"/>
      <point x="820" y="0"/>
      <point x="954" y="104"/>
      <point x="954" y="309" type="curve" smooth="yes"/>
      <point x="954" y="441"/>
      <point x="867" y="551"/>
      <point x="663" y="565" type="curve"/>
      <point x="597" y="644" type="line"/>
      <point x="348" y="644" type="line"/>
      <point x="346" y="449" type="line"/>
      <point x="572" y="449" type="line" smooth="yes"/>
      <point x="652" y="449"/>
      <point x="671" y="405"/>
      <point x="671" y="339" type="curve" smooth="yes"/>
      <point x="671" y="270"/>
      <point x="645" y="233"/>
      <point x="572" y="233" type="curve" smooth="yes"/>
      <point x="330" y="233" type="line"/>
      <point x="228" y="0" type="line"/>
    </contour>
  </outline>
</glyph>
<glyph name="uni045A" format="2">
  <advance width="1522"/>
  <unicode hex="045A"/>
  <outline>
    <contour>
      <point x="726" y="664" type="line"/>
      <point x="294" y="664" type="line"/>
      <point x="294" y="430" type="line"/>
      <point x="726" y="430" type="line"/>
    </contour>
    <contour>
      <point x="386" y="1082" type="line"/>
      <point x="103" y="1082" type="line"/>
      <point x="103" y="0" type="line"/>
      <point x="386" y="0" type="line"/>
    </contour>
    <contour>
      <point x="816" y="742" type="line"/>
      <point x="816" y="508" type="line"/>
      <point x="1066" y="508" type="line"/>
      <point x="1156" y="508"/>
      <point x="1190" y="447"/>
      <point x="1190" y="375" type="curve"/>
      <point x="1190" y="299"/>
      <point x="1156" y="233"/>
      <point x="1066" y="233" type="curve"/>
      <point x="918" y="233" type="line"/>
      <point x="918" y="1082" type="line"/>
      <point x="635" y="1082" type="line"/>
      <point x="635" y="0" type="line"/>
      <point x="1066" y="0" type="line"/>
      <point x="1323" y="0"/>
      <point x="1473" y="154"/>
      <point x="1473" y="373" type="curve"/>
      <point x="1473" y="590"/>
      <point x="1323" y="742"/>
      <point x="1066" y="742" type="curve"/>
    </contour>
  </outline>
</glyph>
<glyph name="uni04A9" format="2">
  <advance width="1173"/>
  <unicode hex="04A9"/>
  <guideline x="0.0" y="2079.0" angle="0.0" identifier="wq7jip40T8"/>
  <anchor x="528" y="1290" name="top"/>
  <anchor x="528" y="-10" name="bottom"/>
  <anchor x="1153" y="1290" name="top0315"/>
  <anchor x="528" y="1290" name="parent_top"/>
  <outline>
    <contour>
      <point x="1109" y="139" type="line"/>
      <point x="838" y="139"/>
      <point x="692" y="303"/>
      <point x="692" y="516" type="curve"/>
      <point x="692" y="676" type="line" smooth="yes"/>
      <point x="692" y="779"/>
      <point x="716" y="859"/>
      <point x="752" y="859" type="curve"/>
      <point x="789" y="859"/>
      <point x="811" y="771"/>
      <point x="811" y="659" type="curve"/>
      <point x="811" y="507" type="line" smooth="yes"/>
      <point x="811" y="344"/>
      <point x="721" y="224"/>
      <point x="579" y="224" type="curve" smooth="yes"/>
      <point x="458" y="224"/>
      <point x="383" y="353"/>
      <point x="383" y="529" type="curve" smooth="yes"/>
      <point x="383" y="629" type="line" smooth="yes"/>
      <point x="383" y="762"/>
      <point x="409" y="849"/>
      <point x="461" y="860" type="curve"/>
      <point x="461" y="1102" type="line"/>
      <point x="236" y="1102"/>
      <point x="84" y="898"/>
      <point x="84" y="627" type="curve" smooth="yes"/>
      <point x="84" y="529" type="line" smooth="yes"/>
      <point x="84" y="217"/>
      <point x="283" y="-21"/>
      <point x="579" y="-21" type="curve" smooth="yes"/>
      <point x="887" y="-21"/>
      <point x="1094" y="200"/>
      <point x="1094" y="491" type="curve" smooth="yes"/>
      <point x="1094" y="641" type="line"/>
      <point x="1094" y="901"/>
      <point x="971" y="1102"/>
      <point x="782" y="1102" type="curve"/>
      <point x="603" y="1102"/>
      <point x="486" y="922"/>
      <point x="486" y="686" type="curve" smooth="yes"/>
      <point x="486" y="530" type="line"/>
      <point x="486" y="216"/>
      <point x="681" y="-27"/>
      <point x="1109" y="-27" type="curve"/>
    </contour>
  </outline>
</glyph>
<glyph name="uni052B" format="2">
  <advance width="2080"/>
  <unicode hex="052B"/>
  <outline>
    <contour>
      <point x="1453" y="1082" type="line"/>
      <point x="1170" y="1082" type="line"/>
      <point x="1170" y="0" type="line"/>
      <point x="1453" y="0" type="line"/>
    </contour>
    <contour>
      <point x="2042" y="1082" type="line"/>
      <point x="1686" y="1082" type="line"/>
      <point x="1522" y="677" type="line"/>
      <point x="868" y="677" type="line"/>
      <point x="896" y="398" type="line"/>
      <point x="1651" y="398" type="line"/>
    </contour>
    <contour>
      <point x="1689" y="0" type="line"/>
      <point x="2064" y="0" type="line"/>
      <point x="1751" y="593" type="line"/>
      <point x="1505" y="452" type="line"/>
    </contour>
    <contour>
      <point x="268" y="1082" type="line"/>
      <point x="263" y="724" type="line" smooth="yes"/>
      <point x="262" y="492"/>
      <point x="252" y="382"/>
      <point x="125" y="235" type="curve"/>
      <point x="98" y="235" type="line"/>
      <point x="101" y="0" type="line"/>
      <point x="151" y="0" type="line"/>
      <point x="362" y="63"/>
      <point x="540" y="255"/>
      <point x="546" y="724" type="curve" smooth="yes"/>
      <point x="551" y="1082" type="line"/>
    </contour>
    <contour>
      <point x="342" y="1082" type="line"/>
      <point x="342" y="842" type="line"/>
      <point x="692" y="842" type="line"/>
      <point x="692" y="0" type="line"/>
      <point x="974" y="0" type="line"/>
      <point x="974" y="1082" type="line"/>
    </contour>
    <contour>
      <point x="44" y="235" type="line"/>
      <point x="44" y="-326" type="line"/>
      <point x="334" y="-326" type="line"/>
      <point x="334" y="0" type="line"/>
      <point x="833" y="0" type="line"/>
      <point x="833" y="-326" type="line"/>
      <point x="1116" y="-326" type="line"/>
      <point x="1116" y="235" type="line"/>
    </contour>
  </outline>
</glyph>
<glyph name="uni052D" format="2">
  <advance width="1158"/>
  <unicode hex="052D"/>
  <outline>
    <contour>
      <point x="535" y="1082" type="line"/>
      <point x="103" y="235" type="line"/>
      <point x="99" y="0" type="line"/>
      <point x="270" y="0" type="line"/>
      <point x="820" y="1082" type="line"/>
    </contour>
    <contour>
      <point x="613" y="1082" type="line"/>
      <point x="643" y="842" type="line"/>
      <point x="693" y="842" type="line"/>
      <point x="693" y="0" type="line"/>
      <point x="975" y="0" type="line"/>
      <point x="975" y="1082" type="line"/>
    </contour>
    <contour>
      <point x="45" y="235" type="line"/>
      <point x="45" y="-326" type="line"/>
      <point x="336" y="-326" type="line"/>
      <point x="336" y="0" type="line"/>
      <point x="835" y="0" type="line"/>
      <point x="835" y="-326" type="line"/>
      <point x="1118" y="-326" type="line"/>
      <point x="1118" y="235" type="line"/>
    </contour>
    <contour>
      <point x="733" y="582" type="line"/>
      <point x="436" y="582" type="line" smooth="yes"/>
      <point x="331" y="582"/>
      <point x="306" y="644"/>
      <point x="306" y="785" type="curve" smooth="yes"/>
      <point x="306" y="1082" type="line"/>
      <point x="46" y="1082" type="line"/>
      <point x="46" y="785" type="line" smooth="yes"/>
      <point x="46" y="495"/>
      <point x="194" y="369"/>
      <point x="459" y="369" type="curve" smooth="yes"/>
      <point x="733" y="369" type="line"/>
    </contour>
  </outline>
</glyph>
<glyph name="uni1AB1" format="2">
  <unicode hex="1AB1"/>
  <anchor x="-469" y="1170" name="_top"/>
  <outline>
    <contour>
      <point x="-982" y="1363" type="curve" smooth="yes"/>
      <point x="-982" y="1291"/>
      <point x="-928" y="1236"/>
      <point x="-844" y="1236" type="curve" smooth="yes"/>
      <point x="-759" y="1236"/>
      <point x="-706" y="1291"/>
      <point x="-706" y="1363" type="curve" smooth="yes"/>
      <point x="-706" y="1434"/>
      <point x="-759" y="1490"/>
      <point x="-844" y="1490" type="curve" smooth="yes"/>
      <point x="-928" y="1490"/>
      <point x="-982" y="1434"/>
    </contour>
    <contour>
      <point x="-232" y="1362" type="curve" smooth="yes"/>
      <point x="-232" y="1291"/>
      <point x="-179" y="1235"/>
      <point x="-95" y="1235" type="curve" smooth="yes"/>
      <point x="-10" y="1235"/>
      <point x="43" y="1291"/>
      <point x="43" y="1362" type="curve" smooth="yes"/>
      <point x="43" y="1434"/>
      <point x="-10" y="1490"/>
      <point x="-95" y="1490" type="curve" smooth="yes"/>
      <point x="-179" y="1490"/>
      <point x="-232" y="1434"/>
    </contour>
    <contour>
      <point x="-669" y="1387" type="curve"/>
      <point x="-669" y="1275"/>
      <point x="-585" y="1186"/>
      <point x="-468" y="1186" type="curve" smooth="yes"/>
      <point x="-352" y="1186"/>
      <point x="-267" y="1275"/>
      <point x="-267" y="1387" type="curve" smooth="yes"/>
      <point x="-267" y="1498"/>
      <point x="-352" y="1592"/>
      <point x="-468" y="1592" type="curve" smooth="yes"/>
      <point x="-585" y="1592"/>
      <point x="-669" y="1498"/>
    </contour>
    <contour>
      <point x="-561" y="1387" type="curve"/>
      <point x="-561" y="1446"/>
      <point x="-525" y="1496"/>
      <point x="-468" y="1496" type="curve" smooth="yes"/>
      <point x="-411" y="1496"/>
      <point x="-376" y="1446"/>
      <point x="-376" y="1387" type="curve" smooth="yes"/>
      <point x="-376" y="1328"/>
      <point x="-411" y="1280"/>
      <point x="-468" y="1280" type="curve" smooth="yes"/>
      <point x="-525" y="1280"/>
      <point x="-561" y="1329"/>
    </contour>
  </outline>
</glyph>
<glyph name="uni1D49" format="2">
  <advance width="770"/>
  <unicode hex="1D49"/>
  <outline>
    <contour>
      <point x="414" y="640" type="curve" smooth="yes"/>
      <point x="550" y="640"/>
      <point x="644" y="711"/>
      <point x="686" y="784" type="curve"/>
      <point x="581" y="910" type="line"/>
      <point x="544" y="853"/>
      <point x="489" y="822"/>
      <point x="428" y="822" type="curve" smooth="yes"/>
      <point x="338" y="822"/>
      <point x="272" y="902"/>
      <point x="272" y="1027" type="curve" smooth="yes"/>
      <point x="272" y="1057" type="line" smooth="yes"/>
      <point x="272" y="1196"/>
      <point x="307" y="1288"/>
      <point x="391" y="1288" type="curve" smooth="yes"/>
      <point x="459" y="1288"/>
      <point x="498" y="1233"/>
      <point x="498" y="1149" type="curve" smooth="yes"/>
      <point x="498" y="1132" type="line"/>
      <point x="160" y="1132" type="line"/>
      <point x="160" y="977" type="line"/>
      <point x="702" y="977" type="line"/>
      <point x="702" y="1077" type="line" smooth="yes"/>
      <point x="702" y="1314"/>
      <point x="594" y="1470"/>
      <point x="393" y="1470" type="curve" smooth="yes"/>
      <point x="192" y="1470"/>
      <point x="67" y="1298"/>
      <point x="67" y="1057" type="curve" smooth="yes"/>
      <point x="67" y="1027" type="line" smooth="yes"/>
      <point x="67" y="814"/>
      <point x="195" y="640"/>
    </contour>
  </outline>
</glyph>
<glyph name="uni1D68" format="2">
  <advance width="783"/>
  <unicode hex="1D68"/>
  <outline>
    <contour>
      <point x="101" y="-504" type="line"/>
      <point x="305" y="-504" type="line"/>
      <point x="305" y="213" type="line" smooth="yes"/>
      <point x="305" y="340"/>
      <point x="338" y="437"/>
      <point x="404" y="437" type="curve" smooth="yes"/>
      <point x="482" y="437"/>
      <point x="511" y="335"/>
      <point x="511" y="200" type="curve" smooth="yes"/>
      <point x="511" y="184" type="line" smooth="yes"/>
      <point x="511" y="58"/>
      <point x="484" y="-29"/>
      <point x="403" y="-29" type="curve" smooth="yes"/>
      <point x="319" y="-29"/>
      <point x="282" y="36"/>
      <point x="279" y="146" type="curve"/>
      <point x="208" y="177" type="line"/>
      <point x="231" y="-44"/>
      <point x="298" y="-211"/>
      <point x="460" y="-211" type="curve" smooth="yes"/>
      <point x="631" y="-211"/>
      <point x="716" y="-47"/>
      <point x="716" y="184" type="curve" smooth="yes"/>
      <point x="716" y="200" type="line" smooth="yes"/>
      <point x="716" y="445"/>
      <point x="617" y="620"/>
      <point x="415" y="620" type="curve" smooth="yes"/>
      <point x="217" y="620"/>
      <point x="101" y="458"/>
      <point x="101" y="232" type="curve" smooth="yes"/>
    </contour>
  </outline>
</glyph>
<glyph name="uni1DEF" format="2">
  <unicode hex="1DEF"/>
  <guideline x="0.0" y="958.0" angle="0.0" identifier="nTIip1bcES"/>
  <anchor x="-470" y="940" name="_top"/>
  <outline>
    <contour>
      <point x="-395" y="1201" type="line"/>
      <point x="-395" y="1810" type="line" smooth="yes"/>
      <point x="-395" y="1858"/>
      <point x="-370" y="1882"/>
      <point x="-332" y="1882" type="curve" smooth="yes"/>
      <point x="-317" y="1882"/>
      <point x="-307" y="1880"/>
      <point x="-297" y="1876" type="curve"/>
      <point x="-295" y="1997" type="line"/>
      <point x="-316" y="2003"/>
      <point x="-338" y="2008"/>
      <point x="-362" y="2008" type="curve" smooth="yes"/>
      <point x="-471" y="2008"/>
      <point x="-546" y="1939"/>
      <point x="-546" y="1810" type="curve" smooth="yes"/>
      <point x="-546" y="1201" type="line"/>
    </contour>
    <contour>
      <point x="-546" y="1760" type="line"/>
      <point x="-546" y="1151" type="line" smooth="yes"/>
      <point x="-546" y="1103"/>
      <point x="-571" y="1079"/>
      <point x="-609" y="1079" type="curve" smooth="yes"/>
      <point x="-624" y="1079"/>
      <point x="-634" y="1081"/>
      <point x="-643" y="1085" type="curve"/>
      <point x="-646" y="964" type="line"/>
      <point x="-624" y="958"/>
      <point x="-603" y="953"/>
      <point x="-579" y="953" type="curve" smooth="yes"/>
      <point x="-470" y="953"/>
      <point x="-395" y="1022"/>
      <point x="-395" y="1151" type="curve" smooth="yes"/>
      <point x="-395" y="1760" type="line"/>
    </contour>
  </outline>
</glyph>
<glyph name="guilsinglright" format="2">
  <advance width="562"/>
  <unicode hex="203A"/>
  <guideline x="0.0" y="98.0" angle="0.0" identifier="RkWTOJEQCg"/>
  <guideline x="0.0" y="443.0" angle="0.0" identifier="5XADYtEM7Z"/>
  <outline>
    <contour>
      <point x="84" y="124" type="line"/>
      <point x="260" y="124" type="line"/>
      <point x="493" y="514" type="line"/>
      <point x="493" y="527" type="line"/>
      <point x="278" y="528" type="line"/>
    </contour>
    <contour>
      <point x="84" y="923" type="line"/>
      <point x="278" y="519" type="line"/>
      <point x="493" y="520" type="line"/>
      <point x="493" y="533" type="line"/>
      <point x="260" y="923" type="line"/>
    </contour>
  </outline>
</glyph>
<glyph name="interrobang" format="2">
  <advance width="905"/>
  <unicode hex="203D"/>
  <outline>
    <contour>
      <point x="511" y="1681" type="line"/>
      <point x="210" y="1681" type="line"/>
      <point x="244" y="449" type="line"/>
      <point x="477" y="449" type="line"/>
    </contour>
    <contour>
      <point x="547" y="449" type="line"/>
      <point x="549" y="552"/>
      <point x="564" y="619"/>
      <point x="624" y="687" type="curve" smooth="yes"/>
      <point x="731" y="809"/>
      <point x="833" y="909"/>
      <point x="833" y="1084" type="curve" smooth="yes"/>
      <point x="833" y="1336"/>
      <point x="686" y="1476"/>
      <point x="441" y="1476" type="curve" smooth="yes"/>
      <point x="218" y="1476"/>
      <point x="47" y="1349"/>
      <point x="44" y="1069" type="curve"/>
      <point x="328" y="1069" type="line"/>
      <point x="329" y="1189"/>
      <point x="389" y="1238"/>
      <point x="441" y="1238" type="curve" smooth="yes"/>
      <point x="512" y="1238"/>
      <point x="550" y="1182"/>
      <point x="550" y="1071" type="curve" smooth="yes"/>
      <point x="550" y="975"/>
      <point x="496" y="910"/>
      <point x="424" y="829" type="curve" smooth="yes"/>
      <point x="328" y="727"/>
      <point x="298" y="629"/>
      <point x="298" y="449" type="curve"/>
    </contour>
    <contour>
      <point x="272" y="142" type="curve" smooth="yes"/>
      <point x="272" y="55"/>
      <point x="332" y="-12"/>
      <point x="426" y="-12" type="curve" smooth="yes"/>
      <point x="521" y="-12"/>
      <point x="581" y="55"/>
      <point x="581" y="142" type="curve" smooth="yes"/>
      <point x="581" y="230"/>
      <point x="521" y="297"/>
      <point x="426" y="297" type="curve" smooth="yes"/>
      <point x="332" y="297"/>
      <point x="272" y="230"/>
    </contour>
  </outline>
</glyph>
<glyph name="naira" format="2">
  <advance width="1463"/>
  <unicode hex="20A6"/>
  <outline>
    <contour>
      <point x="1412" y="989" type="line"/>
      <point x="51" y="989" type="line"/>
      <point x="51" y="829" type="line"/>
      <point x="1412" y="829" type="line"/>
    </contour>
    <contour>
      <point x="1412" y="666" type="line"/>
      <point x="51" y="666" type="line"/>
      <point x="51" y="506" type="line"/>
      <point x="1412" y="506" type="line"/>
    </contour>
    <contour>
      <point x="1239" y="1456" type="line"/>
      <point x="946" y="1456" type="line"/>
      <point x="946" y="500" type="line"/>
      <point x="515" y="1456" type="line"/>
      <point x="221" y="1456" type="line"/>
      <point x="221" y="0" type="line"/>
      <point x="515" y="0" type="line"/>
      <point x="515" y="955" type="line"/>
      <point x="945" y="0" type="line"/>
      <point x="1239" y="0" type="line"/>
    </contour>
  </outline>
</glyph>
<glyph name="uni20B0" format="2">
  <advance width="1219"/>
  <unicode hex="20B0"/>
  <guideline x="771.0" y="0.0" angle="90.0" identifier="GKYWwsu9V5"/>
  <outline>
    <contour>
      <point x="48" y="0" type="curve"/>
      <point x="48" y="0"/>
      <point x="293" y="0"/>
      <point x="293" y="0" type="curve"/>
      <point x="293" y="0"/>
      <point x="405" y="271"/>
      <point x="405" y="271" type="curve"/>
      <point x="638" y="-20" type="line"/>
      <point x="971" y="670"/>
      <point x="1119" y="928"/>
      <point x="1119" y="1202" type="curve" smooth="yes"/>
      <point x="1119" y="1410"/>
      <point x="1006" y="1560"/>
      <point x="797" y="1560" type="curve" smooth="yes"/>
      <point x="598" y="1560"/>
      <point x="469" y="1419"/>
      <point x="469" y="1193" type="curve" smooth="yes"/>
      <point x="469" y="1040"/>
      <point x="516" y="869"/>
      <point x="546" y="765" type="curve" smooth="yes"/>
      <point x="719" y="159" type="line" smooth="yes"/>
      <point x="754" y="53"/>
      <point x="790" y="-48"/>
      <point x="790" y="-114" type="curve" smooth="yes"/>
      <point x="790" y="-160"/>
      <point x="777" y="-202"/>
      <point x="721" y="-202" type="curve" smooth="yes"/>
      <point x="684" y="-202"/>
      <point x="638" y="-192"/>
      <point x="575" y="-158" type="curve"/>
      <point x="575" y="-158"/>
      <point x="577" y="-391"/>
      <point x="577" y="-391" type="curve"/>
      <point x="633" y="-418"/>
      <point x="696" y="-437"/>
      <point x="770" y="-437" type="curve" smooth="yes"/>
      <point x="936" y="-437"/>
      <point x="1049" y="-340"/>
      <point x="1049" y="-175" type="curve" smooth="yes"/>
      <point x="1049" y="-83"/>
      <point x="1034" y="5"/>
      <point x="977" y="181" type="curve" smooth="yes"/>
      <point x="780" y="869" type="line" smooth="yes"/>
      <point x="750" y="967"/>
      <point x="723" y="1081"/>
      <point x="723" y="1171" type="curve" smooth="yes"/>
      <point x="723" y="1257"/>
      <point x="741" y="1325"/>
      <point x="801" y="1325" type="curve" smooth="yes"/>
      <point x="859" y="1325"/>
      <point x="880" y="1261"/>
      <point x="880" y="1177" type="curve" smooth="yes"/>
      <point x="880" y="1037"/>
      <point x="834" y="905"/>
      <point x="662" y="505" type="curve"/>
      <point x="608" y="353" type="line"/>
      <point x="608" y="353"/>
      <point x="365" y="683"/>
      <point x="365" y="683" type="curve"/>
      <point x="365" y="683"/>
      <point x="48" y="0"/>
    </contour>
  </outline>
</glyph>
<glyph name="uni2B5E" format="2">
  <advance width="1079"/>
  <unicode hex="2B5E"/>
  <outline>
    <contour>
      <point x="227" y="-20" type="line"/>
      <point x="577" y="1537" type="line"/>
      <point x="398" y="1537" type="line"/>
      <point x="87" y="140" type="line"/>
    </contour>
    <contour>
      <point x="227" y="-20" type="line"/>
      <point x="938" y="477" type="line"/>
      <point x="851" y="636" type="line"/>
      <point x="123" y="129" type="line"/>
    </contour>
    <contour>
      <point x="469" y="620" type="line"/>
      <point x="914" y="480" type="line"/>
      <point x="992" y="619" type="line"/>
      <point x="647" y="730" type="line"/>
    </contour>
    <contour>
      <point x="900" y="207" type="line"/>
      <point x="992" y="619" type="line"/>
      <point x="839" y="609" type="line"/>
      <point x="721" y="97" type="line"/>
    </contour>
  </outline>
</glyph>
<glyph name="uni2E16" format="2">
  <advance width="769"/>
  <unicode hex="2E16"/>
  <outline>
    <contour>
      <point x="87" y="147" type="line"/>
      <point x="264" y="147" type="line"/>
      <point x="496" y="537" type="line"/>
      <point x="496" y="550" type="line"/>
      <point x="282" y="551" type="line"/>
    </contour>
    <contour>
      <point x="87" y="946" type="line"/>
      <point x="282" y="542" type="line"/>
      <point x="496" y="543" type="line"/>
      <point x="496" y="556" type="line"/>
      <point x="264" y="946" type="line"/>
    </contour>
    <contour>
      <point x="371" y="106" type="curve" smooth="yes"/>
      <point x="371" y="27"/>
      <point x="431" y="-33"/>
      <point x="525" y="-33" type="curve" smooth="yes"/>
      <point x="620" y="-33"/>
      <point x="680" y="27"/>
      <point x="680" y="106" type="curve" smooth="yes"/>
      <point x="680" y="185"/>
      <point x="620" y="245"/>
      <point x="525" y="245" type="curve" smooth="yes"/>
      <point x="431" y="245"/>
      <point x="371" y="185"/>
    </contour>
    <contour>
      <point x="371" y="988" type="curve" smooth="yes"/>
      <point x="371" y="909"/>
      <point x="431" y="849"/>
      <point x="525" y="849" type="curve" smooth="yes"/>
      <point x="620" y="849"/>
      <point x="680" y="909"/>
      <point x="680" y="988" type="curve" smooth="yes"/>
      <point x="680" y="1068"/>
      <point x="620" y="1128"/>
      <point x="525" y="1128" type="curve" smooth="yes"/>
      <point x="431" y="1128"/>
      <point x="371" y="1068"/>
    </contour>
  </outline>
</glyph>
<glyph name="uni2E19" format="2">
  <advance width="1272"/>
  <unicode hex="2E19"/>
  <outline>
    <contour>
      <point x="951" y="1684" type="line"/>
      <point x="171" y="85" type="line"/>
      <point x="382" y="-42" type="line"/>
      <point x="1163" y="1557" type="line"/>
    </contour>
    <contour>
      <point x="110" y="855" type="line"/>
      <point x="260" y="192" type="line"/>
      <point x="447" y="244" type="line"/>
      <point x="296" y="906" type="line"/>
    </contour>
    <contour>
      <point x="290" y="1090" type="line"/>
      <point x="421" y="520" type="line"/>
      <point x="605" y="572" type="line"/>
      <point x="476" y="1141" type="line"/>
    </contour>
    <contour>
      <point x="470" y="1316" type="line"/>
      <point x="580" y="848" type="line"/>
      <point x="767" y="901" type="line"/>
      <point x="657" y="1367" type="line"/>
    </contour>
    <contour>
      <point x="654" y="1548" type="line"/>
      <point x="740" y="1179" type="line"/>
      <point x="926" y="1231" type="line"/>
      <point x="839" y="1599" type="line"/>
    </contour>
    <contour>
      <point x="917" y="482" type="line"/>
      <point x="349" y="304" type="line"/>
      <point x="399" y="109" type="line"/>
      <point x="968" y="286" type="line"/>
    </contour>
    <contour>
      <point x="997" y="786" type="line"/>
      <point x="508" y="632" type="line"/>
      <point x="558" y="437" type="line"/>
      <point x="1048" y="590" type="line"/>
    </contour>
    <contour>
      <point x="1070" y="1083" type="line"/>
      <point x="669" y="961" type="line"/>
      <point x="718" y="766" type="line"/>
      <point x="1121" y="889" type="line"/>
    </contour>
    <contour>
      <point x="1148" y="1388" type="line"/>
      <point x="828" y="1291" type="line"/>
      <point x="879" y="1096" type="line"/>
      <point x="1198" y="1193" type="line"/>
    </contour>
  </outline>
</glyph>
<glyph name="uni2E3F" format="2">
  <advance width="1154"/>
  <unicode hex="2E3F"/>
  <guideline x="0.0" y="-269.0" angle="0.0" identifier="382Tou7vpJ"/>
  <outline>
    <contour>
      <point x="599" y="1456" type="line"/>
      <point x="432" y="1456" type="line"/>
      <point x="432" y="-270" type="line"/>
      <point x="599" y="-270" type="line"/>
    </contour>
    <contour>
      <point x="822" y="1456" type="line"/>
      <point x="655" y="1456" type="line"/>
      <point x="655" y="-270" type="line"/>
      <point x="822" y="-270" type="line"/>
    </contour>
    <contour>
      <point x="911" y="725" type="line"/>
      <point x="855" y="667"/>
      <point x="692" y="642"/>
      <point x="616" y="642" type="curve" smooth="yes"/>
      <point x="492" y="642"/>
      <point x="369" y="720"/>
      <point x="369" y="876" type="curve" smooth="yes"/>
      <point x="369" y="904" type="line" smooth="yes"/>
      <point x="369" y="1056"/>
      <point x="496" y="1139"/>
      <point x="615" y="1139" type="curve" smooth="yes"/>
      <point x="706" y="1139"/>
      <point x="851" y="1120"/>
      <point x="907" y="1041" type="curve"/>
      <point x="1069" y="1209" type="line"/>
      <point x="961" y="1333"/>
      <point x="837" y="1374"/>
      <point x="620" y="1374" type="curve" smooth="yes"/>
      <point x="334" y="1374"/>
      <point x="86" y="1200"/>
      <point x="86" y="904" type="curve" smooth="yes"/>
      <point x="86" y="876" type="line" smooth="yes"/>
      <point x="86" y="579"/>
      <point x="342" y="407"/>
      <point x="621" y="407" type="curve" smooth="yes"/>
      <point x="828" y="407"/>
      <point x="969" y="472"/>
      <point x="1051" y="548" type="curve"/>
    </contour>
  </outline>
</glyph>
<glyph name="uniA665" format="2">
  <advance width="1332"/>
  <unicode hex="A665"/>
  <outline>
    <contour>
      <point x="1302" y="1082" type="line"/>
      <point x="618" y="1082" type="line"/>
      <point x="618" y="847" type="line"/>
      <point x="1302" y="847" type="line"/>
    </contour>
    <contour>
      <point x="712" y="1082" type="line"/>
      <point x="274" y="1082" type="line"/>
      <point x="274" y="847" type="line"/>
      <point x="712" y="847" type="line"/>
    </contour>
    <contour>
      <point x="921" y="1082" type="line"/>
      <point x="639" y="1082" type="line"/>
      <point x="639" y="0" type="line"/>
      <point x="921" y="0" type="line"/>
    </contour>
    <contour>
      <point x="204" y="1082" type="line"/>
      <point x="187" y="621" type="line" smooth="yes"/>
      <point x="178" y="358"/>
      <point x="150" y="251"/>
      <point x="66" y="241" type="curve" smooth="yes"/>
      <point x="34" y="237" type="line"/>
      <point x="37" y="0" type="line"/>
      <point x="121" y="0" type="line" smooth="yes"/>
      <point x="321" y="0"/>
      <point x="437" y="143"/>
      <point x="455" y="533" type="curve" smooth="yes"/>
      <point x="482" y="1082" type="line"/>
    </contour>
  </outline>
</glyph>
<glyph name="uniA66E" format="2">
  <advance width="2106"/>
  <unicode hex="A66E"/>
  <outline>
    <contour>
      <point x="1217" y="1187" type="curve" smooth="yes"/>
      <point x="1217" y="1114"/>
      <point x="1262" y="1059"/>
      <point x="1334" y="1059" type="curve" smooth="yes"/>
      <point x="1405" y="1059"/>
      <point x="1450" y="1114"/>
      <point x="1450" y="1187" type="curve" smooth="yes"/>
      <point x="1450" y="1260"/>
      <point x="1405" y="1315"/>
      <point x="1334" y="1315" type="curve" smooth="yes"/>
      <point x="1262" y="1315"/>
      <point x="1217" y="1260"/>
    </contour>
    <contour>
      <point x="1334" y="739" type="curve" smooth="yes"/>
      <point x="1596" y="739"/>
      <point x="1740" y="926"/>
      <point x="1740" y="1177" type="curve"/>
      <point x="1740" y="1198" type="line" smooth="yes"/>
      <point x="1740" y="1457"/>
      <point x="1596" y="1651"/>
      <point x="1332" y="1651" type="curve" smooth="yes"/>
      <point x="1084" y="1651"/>
      <point x="947" y="1457"/>
      <point x="947" y="1198" type="curve"/>
      <point x="947" y="1177" type="line" smooth="yes"/>
      <point x="947" y="926"/>
      <point x="1084" y="739"/>
    </contour>
    <contour>
      <point x="1334" y="944" type="curve" smooth="yes"/>
      <point x="1211" y="944"/>
      <point x="1165" y="1056"/>
      <point x="1165" y="1176" type="curve"/>
      <point x="1165" y="1199" type="line" smooth="yes"/>
      <point x="1165" y="1316"/>
      <point x="1212" y="1432"/>
      <point x="1332" y="1432" type="curve" smooth="yes"/>
      <point x="1456" y="1432"/>
      <point x="1502" y="1316"/>
      <point x="1502" y="1199" type="curve"/>
      <point x="1502" y="1176" type="line" smooth="yes"/>
      <point x="1502" y="1056"/>
      <point x="1455" y="944"/>
    </contour>
    <contour>
      <point x="656" y="1187" type="curve" smooth="yes"/>
      <point x="656" y="1114"/>
      <point x="701" y="1059"/>
      <point x="772" y="1059" type="curve" smooth="yes"/>
      <point x="844" y="1059"/>
      <point x="888" y="1114"/>
      <point x="888" y="1187" type="curve" smooth="yes"/>
      <point x="888" y="1260"/>
      <point x="844" y="1315"/>
      <point x="772" y="1315" type="curve" smooth="yes"/>
      <point x="701" y="1315"/>
      <point x="656" y="1260"/>
    </contour>
    <contour>
      <point x="772" y="944" type="curve" smooth="yes"/>
      <point x="650" y="944"/>
      <point x="603" y="1056"/>
      <point x="603" y="1176" type="curve"/>
      <point x="603" y="1199" type="line" smooth="yes"/>
      <point x="603" y="1316"/>
      <point x="650" y="1432"/>
      <point x="771" y="1432" type="curve" smooth="yes"/>
      <point x="894" y="1432"/>
      <point x="941" y="1316"/>
      <point x="941" y="1199" type="curve"/>
      <point x="941" y="1176" type="line" smooth="yes"/>
      <point x="941" y="1056"/>
      <point x="893" y="944"/>
    </contour>
    <contour>
      <point x="772" y="739" type="curve" smooth="yes"/>
      <point x="1022" y="739"/>
      <point x="1159" y="926"/>
      <point x="1159" y="1177" type="curve"/>
      <point x="1159" y="1198" type="line" smooth="yes"/>
      <point x="1159" y="1457"/>
      <point x="1022" y="1651"/>
      <point x="771" y="1651" type="curve" smooth="yes"/>
      <point x="509" y="1651"/>
      <point x="365" y="1457"/>
      <point x="365" y="1198" type="curve"/>
      <point x="365" y="1177" type="line" smooth="yes"/>
      <point x="365" y="926"/>
      <point x="509" y="739"/>
    </contour>
    <contour>
      <point x="655" y="-78" type="curve" smooth="yes"/>
      <point x="655" y="-151"/>
      <point x="700" y="-206"/>
      <point x="771" y="-206" type="curve" smooth="yes"/>
      <point x="844" y="-206"/>
      <point x="888" y="-151"/>
      <point x="888" y="-78" type="curve" smooth="yes"/>
      <point x="888" y="-5"/>
      <point x="844" y="51"/>
      <point x="771" y="51" type="curve" smooth="yes"/>
      <point x="700" y="51"/>
      <point x="655" y="-5"/>
    </contour>
    <contour>
      <point x="1216" y="-78" type="curve" smooth="yes"/>
      <point x="1216" y="-151"/>
      <point x="1261" y="-206"/>
      <point x="1333" y="-206" type="curve" smooth="yes"/>
      <point x="1405" y="-206"/>
      <point x="1450" y="-151"/>
      <point x="1450" y="-78" type="curve" smooth="yes"/>
      <point x="1450" y="-5"/>
      <point x="1405" y="51"/>
      <point x="1333" y="51" type="curve" smooth="yes"/>
      <point x="1261" y="51"/>
      <point x="1216" y="-5"/>
    </contour>
    <contour>
      <point x="1334" y="-321" type="curve" smooth="yes"/>
      <point x="1210" y="-321"/>
      <point x="1164" y="-209"/>
      <point x="1164" y="-88" type="curve"/>
      <point x="1164" y="-66" type="line" smooth="yes"/>
      <point x="1164" y="52"/>
      <point x="1211" y="168"/>
      <point x="1332" y="168" type="curve" smooth="yes"/>
      <point x="1455" y="168"/>
      <point x="1502" y="52"/>
      <point x="1502" y="-66" type="curve"/>
      <point x="1502" y="-88" type="line" smooth="yes"/>
      <point x="1502" y="-209"/>
      <point x="1455" y="-321"/>
    </contour>
    <contour>
      <point x="772" y="-540" type="curve" smooth="yes"/>
      <point x="1021" y="-540"/>
      <point x="1158" y="-347"/>
      <point x="1158" y="-88" type="curve"/>
      <point x="1158" y="-67" type="line" smooth="yes"/>
      <point x="1158" y="185"/>
      <point x="1021" y="372"/>
      <point x="771" y="372" type="curve" smooth="yes"/>
      <point x="509" y="372"/>
      <point x="365" y="185"/>
      <point x="365" y="-67" type="curve"/>
      <point x="365" y="-88" type="line" smooth="yes"/>
      <point x="365" y="-347"/>
      <point x="509" y="-540"/>
    </contour>
    <contour>
      <point x="772" y="-321" type="curve" smooth="yes"/>
      <point x="649" y="-321"/>
      <point x="602" y="-209"/>
      <point x="602" y="-88" type="curve"/>
      <point x="602" y="-66" type="line" smooth="yes"/>
      <point x="602" y="52"/>
      <point x="650" y="168"/>
      <point x="771" y="168" type="curve" smooth="yes"/>
      <point x="894" y="168"/>
      <point x="941" y="52"/>
      <point x="941" y="-66" type="curve"/>
      <point x="941" y="-88" type="line" smooth="yes"/>
      <point x="941" y="-209"/>
      <point x="893" y="-321"/>
    </contour>
    <contour>
      <point x="1334" y="-540" type="curve" smooth="yes"/>
      <point x="1596" y="-540"/>
      <point x="1740" y="-347"/>
      <point x="1740" y="-88" type="curve"/>
      <point x="1740" y="-67" type="line" smooth="yes"/>
      <point x="1740" y="185"/>
      <point x="1596" y="372"/>
      <point x="1332" y="372" type="curve" smooth="yes"/>
      <point x="1084" y="372"/>
      <point x="947" y="185"/>
      <point x="947" y="-67" type="curve"/>
      <point x="947" y="-88" type="line" smooth="yes"/>
      <point x="947" y="-347"/>
      <point x="1083" y="-540"/>
    </contour>
    <contour>
      <point x="1615" y="312" type="curve" smooth="yes"/>
      <point x="1492" y="312"/>
      <point x="1445" y="424"/>
      <point x="1445" y="544" type="curve"/>
      <point x="1445" y="567" type="line" smooth="yes"/>
      <point x="1445" y="685"/>
      <point x="1493" y="800"/>
      <point x="1614" y="800" type="curve" smooth="yes"/>
      <point x="1736" y="800"/>
      <point x="1783" y="685"/>
      <point x="1783" y="567" type="curve"/>
      <point x="1783" y="544" type="line" smooth="yes"/>
      <point x="1783" y="424"/>
      <point x="1736" y="312"/>
    </contour>
    <contour>
      <point x="1615" y="108" type="curve" smooth="yes"/>
      <point x="1878" y="108"/>
      <point x="2021" y="294"/>
      <point x="2021" y="545" type="curve"/>
      <point x="2021" y="566" type="line" smooth="yes"/>
      <point x="2021" y="817"/>
      <point x="1878" y="1005"/>
      <point x="1614" y="1005" type="curve" smooth="yes"/>
      <point x="1365" y="1005"/>
      <point x="1228" y="817"/>
      <point x="1228" y="566" type="curve"/>
      <point x="1228" y="545" type="line" smooth="yes"/>
      <point x="1228" y="294"/>
      <point x="1364" y="108"/>
    </contour>
    <contour>
      <point x="1498" y="555" type="curve" smooth="yes"/>
      <point x="1498" y="483"/>
      <point x="1543" y="427"/>
      <point x="1614" y="427" type="curve" smooth="yes"/>
      <point x="1687" y="427"/>
      <point x="1731" y="483"/>
      <point x="1731" y="555" type="curve" smooth="yes"/>
      <point x="1731" y="628"/>
      <point x="1687" y="683"/>
      <point x="1614" y="683" type="curve" smooth="yes"/>
      <point x="1543" y="683"/>
      <point x="1498" y="628"/>
    </contour>
    <contour>
      <point x="1053" y="312" type="curve" smooth="yes"/>
      <point x="930" y="312"/>
      <point x="884" y="424"/>
      <point x="884" y="544" type="curve"/>
      <point x="884" y="567" type="line" smooth="yes"/>
      <point x="884" y="685"/>
      <point x="931" y="800"/>
      <point x="1052" y="800" type="curve" smooth="yes"/>
      <point x="1175" y="800"/>
      <point x="1222" y="685"/>
      <point x="1222" y="567" type="curve"/>
      <point x="1222" y="544" type="line" smooth="yes"/>
      <point x="1222" y="424"/>
      <point x="1174" y="312"/>
    </contour>
    <contour>
      <point x="936" y="555" type="curve" smooth="yes"/>
      <point x="936" y="483"/>
      <point x="982" y="427"/>
      <point x="1053" y="427" type="curve" smooth="yes"/>
      <point x="1125" y="427"/>
      <point x="1170" y="483"/>
      <point x="1170" y="555" type="curve" smooth="yes"/>
      <point x="1170" y="628"/>
      <point x="1125" y="683"/>
      <point x="1053" y="683" type="curve" smooth="yes"/>
      <point x="982" y="683"/>
      <point x="936" y="628"/>
    </contour>
    <contour>
      <point x="1053" y="123" type="curve" smooth="yes"/>
      <point x="1303" y="123"/>
      <point x="1439" y="303"/>
      <point x="1439" y="545" type="curve"/>
      <point x="1439" y="566" type="line" smooth="yes"/>
      <point x="1439" y="808"/>
      <point x="1303" y="990"/>
      <point x="1052" y="990" type="curve" smooth="yes"/>
      <point x="803" y="990"/>
      <point x="666" y="808"/>
      <point x="666" y="566" type="curve"/>
      <point x="666" y="545" type="line" smooth="yes"/>
      <point x="666" y="303"/>
      <point x="803" y="123"/>
    </contour>
    <contour>
      <point x="375" y="555" type="curve" smooth="yes"/>
      <point x="375" y="483"/>
      <point x="419" y="427"/>
      <point x="492" y="427" type="curve" smooth="yes"/>
      <point x="564" y="427"/>
      <point x="608" y="483"/>
      <point x="608" y="555" type="curve" smooth="yes"/>
      <point x="608" y="628"/>
      <point x="564" y="683"/>
      <point x="492" y="683" type="curve" smooth="yes"/>
      <point x="419" y="683"/>
      <point x="375" y="628"/>
    </contour>
    <contour>
      <point x="492" y="312" type="curve" smooth="yes"/>
      <point x="369" y="312"/>
      <point x="322" y="424"/>
      <point x="322" y="544" type="curve"/>
      <point x="322" y="567" type="line" smooth="yes"/>
      <point x="322" y="685"/>
      <point x="370" y="800"/>
      <point x="491" y="800" type="curve" smooth="yes"/>
      <point x="613" y="800"/>
      <point x="660" y="685"/>
      <point x="660" y="567" type="curve"/>
      <point x="660" y="544" type="line" smooth="yes"/>
      <point x="660" y="424"/>
      <point x="613" y="312"/>
    </contour>
    <contour>
      <point x="492" y="108" type="curve" smooth="yes"/>
      <point x="742" y="108"/>
      <point x="878" y="294"/>
      <point x="878" y="545" type="curve"/>
      <point x="878" y="566" type="line" smooth="yes"/>
      <point x="878" y="817"/>
      <point x="742" y="1005"/>
      <point x="491" y="1005" type="curve" smooth="yes"/>
      <point x="229" y="1005"/>
      <point x="84" y="817"/>
      <point x="84" y="566" type="curve"/>
      <point x="84" y="545" type="line" smooth="yes"/>
      <point x="84" y="294"/>
      <point x="229" y="108"/>
    </contour>
  </outline>
</glyph>
<glyph name="uniA672" format="2">
  <unicode hex="A672"/>
  <guideline x="0.0" y="571.0" angle="0.0" identifier="O6Jfz4G4a7"/>
  <outline>
    <contour>
      <point x="-968" y="1039" type="line"/>
      <point x="-1381" y="1039" type="line"/>
      <point x="-1381" y="804" type="line"/>
      <point x="-968" y="804" type="line"/>
    </contour>
    <contour>
      <point x="-968" y="339" type="line"/>
      <point x="-1381" y="339" type="line"/>
      <point x="-1381" y="104" type="line"/>
      <point x="-968" y="104" type="line"/>
    </contour>
    <contour>
      <point x="-968" y="689" type="line"/>
      <point x="-1381" y="689" type="line"/>
      <point x="-1381" y="454" type="line"/>
      <point x="-968" y="454" type="line"/>
    </contour>
    <contour>
      <point x="444" y="1039" type="line"/>
      <point x="30" y="1039" type="line"/>
      <point x="30" y="804" type="line"/>
      <point x="444" y="804" type="line"/>
    </contour>
    <contour>
      <point x="444" y="339" type="line"/>
      <point x="30" y="339" type="line"/>
      <point x="30" y="104" type="line"/>
      <point x="444" y="104" type="line"/>
    </contour>
    <contour>
      <point x="444" y="689" type="line"/>
      <point x="30" y="689" type="line"/>
      <point x="30" y="454" type="line"/>
      <point x="444" y="454" type="line"/>
    </contour>
    <contour>
      <point x="-55" y="-477" type="line"/>
      <point x="-55" y="-85" type="line"/>
      <point x="-282" y="-85" type="line"/>
      <point x="-282" y="-477" type="line"/>
    </contour>
    <contour>
      <point x="-659" y="-477" type="line"/>
      <point x="-659" y="-85" type="line"/>
      <point x="-886" y="-85" type="line"/>
      <point x="-886" y="-477" type="line"/>
    </contour>
    <contour>
      <point x="-357" y="-477" type="line"/>
      <point x="-357" y="-85" type="line"/>
      <point x="-584" y="-85" type="line"/>
      <point x="-584" y="-477" type="line"/>
    </contour>
    <contour>
      <point x="-357" y="1158" type="line"/>
      <point x="-357" y="1610" type="line"/>
      <point x="-584" y="1610" type="line"/>
      <point x="-584" y="1158" type="line"/>
    </contour>
    <contour>
      <point x="-261" y="1502" type="line"/>
      <point x="-680" y="1502" type="line"/>
      <point x="-680" y="1267" type="line"/>
      <point x="-261" y="1267" type="line"/>
    </contour>
  </outline>
</glyph>
<glyph name="uniA68E" format="2">
  <advance width="1384"/>
  <unicode hex="A68E"/>
  <outline>
    <contour>
      <point x="104" y="0" type="line"/>
      <point x="1124" y="0" type="line"/>
      <point x="1124" y="1456" type="line"/>
      <point x="829" y="1456" type="line"/>
      <point x="829" y="244" type="line"/>
      <point x="398" y="244" type="line"/>
      <point x="398" y="1456" type="line"/>
      <point x="104" y="1456" type="line"/>
    </contour>
    <contour>
      <point x="926" y="244" type="line"/>
      <point x="926" y="0" type="line"/>
      <point x="1038" y="0" type="line"/>
      <point x="1047" y="-20"/>
      <point x="1052" y="-40"/>
      <point x="1052" y="-63" type="curve" smooth="yes"/>
      <point x="1052" y="-141"/>
      <point x="890" y="-176"/>
      <point x="737" y="-176" type="curve" smooth="yes"/>
      <point x="545" y="-176"/>
      <point x="358" y="-127"/>
      <point x="211" y="-63" type="curve"/>
      <point x="127" y="-291" type="line"/>
      <point x="344" y="-388"/>
      <point x="522" y="-426"/>
      <point x="726" y="-426" type="curve" smooth="yes"/>
      <point x="1067" y="-426"/>
      <point x="1347" y="-332"/>
      <point x="1347" y="-34" type="curve" smooth="yes"/>
      <point x="1347" y="66"/>
      <point x="1313" y="153"/>
      <point x="1263" y="244" type="curve"/>
    </contour>
  </outline>
</glyph>
<glyph name="uniA706" format="2">
  <advance width="558"/>
  <unicode hex="A706"/>
  <outline>
    <contour>
      <point x="87" y="-417" type="line"/>
      <point x="235" y="-417" type="line" smooth="yes"/>
      <point x="386" y="-417"/>
      <point x="471" y="-295"/>
      <point x="471" y="-138" type="curve" smooth="yes"/>
      <point x="471" y="-124" type="line" smooth="yes"/>
      <point x="471" y="33"/>
      <point x="385" y="155"/>
      <point x="235" y="155" type="curve" smooth="yes"/>
      <point x="87" y="155" type="line"/>
      <point x="87" y="30" type="line"/>
      <point x="238" y="30" type="line" smooth="yes"/>
      <point x="296" y="30"/>
      <point x="321" y="-41"/>
      <point x="321" y="-124" type="curve" smooth="yes"/>
      <point x="321" y="-138" type="line" smooth="yes"/>
      <point x="321" y="-223"/>
      <point x="298" y="-290"/>
      <point x="238" y="-290" type="curve" smooth="yes"/>
      <point x="87" y="-290" type="line"/>
    </contour>
  </outline>
</glyph>
<glyph name="uniA74A" format="2">
  <advance width="1462"/>
  <unicode hex="A74A"/>
  <outline>
    <contour>
      <point x="1428" y="847" type="line"/>
      <point x="34" y="847" type="line"/>
      <point x="34" y="603" type="line"/>
      <point x="1428" y="603" type="line"/>
    </contour>
    <contour>
      <point x="1263" y="760" type="line"/>
      <point x="1263" y="1204"/>
      <point x="1043" y="1476"/>
      <point x="730" y="1476" type="curve" smooth="yes"/>
      <point x="418" y="1476"/>
      <point x="197" y="1204"/>
      <point x="197" y="760" type="curve"/>
      <point x="197" y="695" type="line"/>
      <point x="197" y="251"/>
      <point x="420" y="-20"/>
      <point x="732" y="-20" type="curve" smooth="yes"/>
      <point x="1045" y="-20"/>
      <point x="1263" y="251"/>
      <point x="1263" y="695" type="curve"/>
    </contour>
    <contour>
      <point x="966" y="695" type="line"/>
      <point x="966" y="394"/>
      <point x="882" y="229"/>
      <point x="732" y="229" type="curve" smooth="yes"/>
      <point x="581" y="229"/>
      <point x="495" y="394"/>
      <point x="495" y="695" type="curve" smooth="yes"/>
      <point x="495" y="762" type="line" smooth="yes"/>
      <point x="495" y="1065"/>
      <point x="579" y="1226"/>
      <point x="730" y="1226" type="curve" smooth="yes"/>
      <point x="880" y="1226"/>
      <point x="966" y="1065"/>
      <point x="966" y="762" type="curve"/>
    </contour>
  </outline>
</glyph>
<glyph name="uniA78B" format="2">
  <advance width="399"/>
  <unicode hex="A78B"/>
  <outline>
    <contour>
      <point x="312" y="1560" type="line"/>
      <point x="87" y="1560" type="line"/>
      <point x="87" y="1403" type="line"/>
      <point x="124" y="821" type="line"/>
      <point x="274" y="821" type="line"/>
      <point x="312" y="1403" type="line"/>
    </contour>
  </outline>
</glyph>
<glyph name="uniA7AC" format="2">
  <advance width="1272"/>
  <unicode hex="A7AC"/>
  <outline>
    <contour>
      <point x="899" y="1456" type="line"/>
      <point x="860" y="1205" type="line"/>
      <point x="860" y="37" type="line" smooth="yes"/>
      <point x="860" y="-115"/>
      <point x="772" y="-199"/>
      <point x="602" y="-199" type="curve" smooth="yes"/>
      <point x="511" y="-199"/>
      <point x="431" y="-156"/>
      <point x="343" y="-78" type="curve"/>
      <point x="216" y="-260" type="line"/>
      <point x="316" y="-378"/>
      <point x="465" y="-436"/>
      <point x="610" y="-436" type="curve" smooth="yes"/>
      <point x="954" y="-436"/>
      <point x="1154" y="-264"/>
      <point x="1154" y="38" type="curve" smooth="yes"/>
      <point x="1154" y="1456" type="line"/>
    </contour>
    <contour>
      <point x="887" y="376" type="line"/>
      <point x="834" y="301"/>
      <point x="721" y="228"/>
      <point x="602" y="228" type="curve" smooth="yes"/>
      <point x="435" y="228"/>
      <point x="383" y="379"/>
      <point x="383" y="681" type="curve" smooth="yes"/>
      <point x="383" y="777" type="line" smooth="yes"/>
      <point x="383" y="1085"/>
      <point x="450" y="1229"/>
      <point x="605" y="1229" type="curve" smooth="yes"/>
      <point x="721" y="1229"/>
      <point x="810" y="1186"/>
      <point x="879" y="1109" type="curve"/>
      <point x="961" y="1319" type="line"/>
      <point x="873" y="1409"/>
      <point x="756" y="1477"/>
      <point x="605" y="1477" type="curve" smooth="yes"/>
      <point x="289" y="1477"/>
      <point x="84" y="1206"/>
      <point x="84" y="775" type="curve" smooth="yes"/>
      <point x="84" y="681" type="line" smooth="yes"/>
      <point x="84" y="250"/>
      <point x="279" y="-20"/>
      <point x="602" y="-20" type="curve" smooth="yes"/>
      <point x="745" y="-20"/>
      <point x="865" y="46"/>
      <point x="942" y="139" type="curve"/>
    </contour>
  </outline>
</glyph>
<glyph name="uni1F16A" format="2">
  <advance width="1216"/>
  <unicode hex="1F16A"/>
  <outline>
    <contour>
      <point x="376" y="1089" type="line"/>
      <point x="283" y="1456" type="line"/>
      <point x="177" y="1456" type="line"/>
      <point x="344" y="915" type="line"/>
      <point x="408" y="915" type="line"/>
      <point x="575" y="1456" type="line"/>
      <point x="469" y="1456" type="line"/>
    </contour>
    <contour>
      <point x="256" y="1456" type="line"/>
      <point x="136" y="1456" type="line"/>
      <point x="136" y="915" type="line"/>
      <point x="256" y="915" type="line"/>
    </contour>
    <contour>
      <point x="491" y="915" type="line"/>
      <point x="612" y="915" type="line"/>
      <point x="612" y="1456" type="line"/>
      <point x="491" y="1456" type="line"/>
    </contour>
    <contour>
      <point x="891" y="1010" type="curve" smooth="yes"/>
      <point x="832" y="1010"/>
      <point x="814" y="1071"/>
      <point x="814" y="1139" type="curve" smooth="yes"/>
      <point x="814" y="1230" type="line" smooth="yes"/>
      <point x="814" y="1298"/>
      <point x="832" y="1359"/>
      <point x="891" y="1359" type="curve" smooth="yes"/>
      <point x="933" y="1359"/>
      <point x="948" y="1322"/>
      <point x="956" y="1268" type="curve"/>
      <point x="1080" y="1268" type="line"/>
      <point x="1072" y="1394"/>
      <point x="1006" y="1465"/>
      <point x="891" y="1465" type="curve" smooth="yes"/>
      <point x="761" y="1465"/>
      <point x="693" y="1365"/>
      <point x="693" y="1230" type="curve" smooth="yes"/>
      <point x="693" y="1139" type="line" smooth="yes"/>
      <point x="693" y="1004"/>
      <point x="761" y="903"/>
      <point x="891" y="903" type="curve" smooth="yes"/>
      <point x="1003" y="903"/>
      <point x="1072" y="974"/>
      <point x="1080" y="1098" type="curve"/>
      <point x="956" y="1098" type="line"/>
      <point x="947" y="1042"/>
      <point x="936" y="1010"/>
    </contour>
  </outline>
</glyph>
<glyph name="J.smcp" format="2">
  <advance width="874"/>
  <anchor x="635" y="1320" name="top"/>
  <anchor x="418" y="-10" name="bottom"/>
  <anchor x="854" y="1600" name="top_dd"/>
  <anchor x="854" y="-407" name="bottom_dd"/>
  <anchor x="854" y="1320" name="top0315"/>
  <anchor x="635" y="1320" name="parent_top"/>
  <outline>
    <contour>
      <point x="498" y="396" type="line"/>
      <point x="498" y="274"/>
      <point x="475" y="218"/>
      <point x="418" y="218" type="curve" smooth="yes"/>
      <point x="355" y="218"/>
      <point x="324" y="266"/>
      <point x="324" y="374" type="curve"/>
      <point x="41" y="374" type="line"/>
      <point x="41" y="106"/>
      <point x="193" y="-16"/>
      <point x="418" y="-16" type="curve" smooth="yes"/>
      <point x="618" y="-16"/>
      <point x="782" y="135"/>
      <point x="782" y="396" type="curve"/>
      <point x="782" y="1165" type="line"/>
      <point x="498" y="1165" type="line"/>
    </contour>
  </outline>
</glyph>
<glyph name="Psi.smcp" format="2">
  <advance width="1269"/>
  <outline>
    <contour>
      <point x="919" y="1165" type="line"/>
      <point x="919" y="873" type="line" smooth="yes"/>
      <point x="919" y="625"/>
      <point x="883" y="504"/>
      <point x="700" y="504" type="curve" smooth="yes"/>
      <point x="583" y="504" type="line" smooth="yes"/>
      <point x="403" y="504"/>
      <point x="350" y="625"/>
      <point x="350" y="873" type="curve" smooth="yes"/>
      <point x="350" y="1165" type="line"/>
      <point x="66" y="1165" type="line"/>
      <point x="66" y="873" type="line" smooth="yes"/>
      <point x="66" y="486"/>
      <point x="252" y="269"/>
      <point x="572" y="269" type="curve" smooth="yes"/>
      <point x="689" y="269" type="line" smooth="yes"/>
      <point x="1012" y="269"/>
      <point x="1202" y="486"/>
      <point x="1202" y="873" type="curve" smooth="yes"/>
      <point x="1202" y="1165" type="line"/>
    </contour>
    <contour>
      <point x="776" y="1165" type="line"/>
      <point x="493" y="1165" type="line"/>
      <point x="493" y="0" type="line"/>
      <point x="776" y="0" type="line"/>
    </contour>
  </outline>
</glyph>
<glyph name="linevertsubnosp_uni1ABD" format="2">
  <anchor x="-471" y="0" name="_bottom"/>
  <anchor x="-470" y="-508" name="bottom"/>
  <outline>
    <contour>
      <point x="-778" y="-492" type="curve"/>
      <point x="-760" y="-415" type="line"/>
      <point x="-797" y="-393"/>
      <point x="-842" y="-358"/>
      <point x="-842" y="-278" type="curve" smooth="yes"/>
      <point x="-842" y="-203"/>
      <point x="-799" y="-167"/>
      <point x="-760" y="-144" type="curve"/>
      <point x="-778" y="-67" type="line"/>
      <point x="-849" y="-87"/>
      <point x="-941" y="-162"/>
      <point x="-941" y="-278" type="curve" smooth="yes"/>
      <point x="-941" y="-398"/>
      <point x="-849" y="-471"/>
    </contour>
    <contour>
      <point x="-151" y="-492" type="line"/>
      <point x="-81" y="-471"/>
      <point x="12" y="-398"/>
      <point x="12" y="-278" type="curve" smooth="yes"/>
      <point x="12" y="-160"/>
      <point x="-81" y="-87"/>
      <point x="-151" y="-67" type="curve"/>
      <point x="-169" y="-144" type="line"/>
      <point x="-130" y="-167"/>
      <point x="-87" y="-200"/>
      <point x="-87" y="-278" type="curve" smooth="yes"/>
      <point x="-87" y="-359"/>
      <point x="-132" y="-393"/>
      <point x="-169" y="-415" type="curve"/>
    </contour>
    <contour>
      <point x="-382" y="-72" type="line"/>
      <point x="-560" y="-72" type="line"/>
      <point x="-560" y="-508" type="line"/>
      <point x="-382" y="-508" type="line"/>
    </contour>
  </outline>
</glyph>
<glyph name="tildemacroncomb.lc" format="2">
  <anchor x="-469" y="1969" name="mkmktop_acc"/>
  <outline>
    <contour>
      <point x="-304" y="1536" type="line"/>
      <point x="-304" y="1475"/>
      <point x="-334" y="1441"/>
      <point x="-370" y="1441" type="curve" smooth="yes"/>
      <point x="-452" y="1441"/>
      <point x="-514" y="1527"/>
      <point x="-598" y="1527" type="curve" smooth="yes"/>
      <point x="-714" y="1527"/>
      <point x="-797" y="1402"/>
      <point x="-797" y="1259" type="curve"/>
      <point x="-637" y="1249" type="line"/>
      <point x="-637" y="1310"/>
      <point x="-609" y="1344"/>
      <point x="-572" y="1344" type="curve" smooth="yes"/>
      <point x="-487" y="1344"/>
      <point x="-449" y="1258"/>
      <point x="-344" y="1258" type="curve" smooth="yes"/>
      <point x="-228" y="1258"/>
      <point x="-145" y="1378"/>
      <point x="-145" y="1525" type="curve"/>
    </contour>
    <contour>
      <point x="-167" y="1821" type="line"/>
      <point x="-767" y="1821" type="line"/>
      <point x="-767" y="1654" type="line"/>
      <point x="-167" y="1654" type="line"/>
    </contour>
  </outline>
</glyph>
<glyph name="uni02E5_uni02E6_uni02E9" format="2">
  <advance width="1141"/>
  <outline>
    <contour>
      <point x="1022" y="0" type="line"/>
      <point x="1022" y="1456" type="line"/>
      <point x="739" y="1456" type="line"/>
      <point x="739" y="633" type="line"/>
      <point x="604" y="1085" type="line"/>
      <point x="241" y="1456" type="line"/>
      <point x="97" y="1287" type="line"/>
      <point x="406" y="963" type="line"/>
      <point x="739" y="0" type="line"/>
    </contour>
  </outline>
</glyph>
<glyph name="uni02E8_uni02E6_uni02E9" format="2">
  <advance width="1141"/>
  <outline>
    <contour>
      <point x="1022" y="1456" type="line"/>
      <point x="739" y="1456" type="line"/>
      <point x="739" y="528" type="line"/>
      <point x="519" y="1151" type="line"/>
      <point x="135" y="427" type="line"/>
      <point x="328" y="305" type="line"/>
      <point x="504" y="678" type="line"/>
      <point x="739" y="0" type="line"/>
      <point x="1022" y="0" type="line"/>
    </contour>
  </outline>
</glyph>
<glyph name="uni049A.smcp" format="2">
  <advance width="1081"/>
  <outline>
    <contour>
      <point x="1047" y="-334" type="line"/>
      <point x="1047" y="235" type="line"/>
      <point x="816" y="235" type="line"/>
      <point x="816" y="-334" type="line"/>
    </contour>
    <contour>
      <point x="374" y="1165" type="line"/>
      <point x="90" y="1165" type="line"/>
      <point x="90" y="0" type="line"/>
      <point x="374" y="0" type="line"/>
    </contour>
    <contour>
      <point x="937" y="1165" type="line"/>
      <point x="613" y="1165" type="line"/>
      <point x="454" y="715" type="line"/>
      <point x="289" y="715" type="line"/>
      <point x="324" y="439" type="line"/>
      <point x="594" y="439" type="line"/>
    </contour>
    <contour>
      <point x="619" y="0" type="line"/>
      <point x="962" y="0" type="line"/>
      <point x="647" y="668" type="line"/>
      <point x="430" y="494" type="line"/>
    </contour>
  </outline>
</glyph>
